<?xml version="1.0" encoding="UTF-8"?><svg id="Layer_2" xmlns="http://www.w3.org/2000/svg" viewBox="0 0 1011.54 547.04"><defs><style>.cls-1{fill:#0000f3;}.cls-2{font-family:IBMPlexSansArabic-Bold, 'IBM Plex Sans Arabic';font-size:160px;font-weight:700;}</style></defs><g id="Layer_1-2"><text class="cls-2" transform="translate(313.37 450.88)"><tspan x="0" y="0">Apps</tspan></text><path class="cls-1" d="M354.29,0c-.9,0-1.77.44-2.65,1.34-6.69,5.76-12.57,12.73-17.65,20.95-5.1,8.22-9.9,16.71-14.32,25.58-4.45,9.27-8.43,18.46-11.98,27.54-3.55,9.09-7.31,17.4-11.3,24.9-2.24,4.39-4.67,8.84-7.31,13.26-2.71,4.45-5.35,8.68-8.03,12.64-55.43,89.02-117.56,172.9-186.31,251.73l-1.31,1.31c-30.43,9.77-60.8,20.37-91.09,31.82-1.41.53-2.35,1.89-2.35,3.4h0c0,2.53,2.53,4.27,4.89,3.36,24.83-9.47,49.9-18.34,75.19-26.6h.03l6.01-1.99-4.67,5.32c-12.85,14.19-26.05,28.23-39.59,42.17-13.51,13.94-26.92,28.04-40.24,42.17-.9.44-1.31,1.12-1.31,2.02-.22.5-.31.93-.31,1.34,0,1.31,1.21,1.99,3.64,1.99,1.8,0,3.33-.68,4.67-2.02,6.66-5.79,14.01-12.73,21.97-20.92,7.94-8.22,16.03-16.65,24.28-25.27,8.15-8.59,16.18-17.27,23.93-25.86,7.75-8.68,14.5-16.53,20.29-23.59l.68-.68h.62c16.84-4.86,33.61-9.52,50.23-13.94,16.62-4.45,33.37-8.19,50.23-11.3l2.65-.68-.68,2.65c-2.21,5.76-4.11,11.52-5.63,17.27-1.59,5.76-3.27,11.7-5.01,17.9-3.58,12.85-6.32,25.68-8.31,38.53-2.02,12.82-2.58,25.24-1.68,37.16.44,7.1,1.9,14.1,4.33,20.95,2.43,6.88,5.88,12.92,10.33,18.27,4.39,5.32,9.62,9.62,15.62,12.95,5.94,3.33,12.98,5.01,20.95,5.01h4.64c1.77,0,3.8-.28,6.01-.68,4.42-1.34,6.91-2.89,7.31-4.67.9-2.65,0-3.95-2.65-3.95s-4.89.25-6.63.68c-1.34.47-3.77.68-7.31.68-14.22,0-24.99-5.48-32.31-16.31-7.28-10.83-11.39-22.41-12.29-34.83-.9-10.61-.47-21.44,1.34-32.56,1.74-11.05,4.2-22.35,7.31-33.86.9-2.21,1.46-4.08,1.68-5.63.22-1.53.78-3.39,1.68-5.63l5.98-21.91c1.81-3.95,2.93-7.5,3.36-10.61l.68-2.02h1.31c11.08-2.68,22.47-4.98,34.27-6.97,11.77-2.02,23.41-2.99,34.92-2.99,7.56,0,13.63.9,18.3,2.65,4.61,1.74,8.31,3.73,10.96,5.98,1.34.87,2.43,1.99,3.33,3.33.56.19,1.06.44,1.46.78.56.47.97,1.09,1.21,1.84.4.5.75.68.97.68s.56.44,1,1.34c2.65,0,4.42-1.81,5.32-5.32v-2.02l-.09-.06-1.56-.78-2.33-1.15c-.9-1.56-1.9-3.02-3.02-4.36-3.3-3.92-7.5-6.82-12.64-8.62-6.85-2.43-14.29-3.67-22.25-3.67-10.24,0-20.85,1-31.93,2.99-11.11,2.02-21.94,4.11-32.59,6.32l-3.36.68,1.34-2.65c12.42-40.74,25.96-81.11,40.59-121.2,14.66-40.06,30.38-80.24,47.25-120.54l1.99-3.95c.5-2.24,3.02-7.69,7.69-16.31,4.67-8.62,9.83-18.24,15.62-28.85,5.79-10.21,11.2-20.14,16.31-29.91,5.1-9.74,8.75-16.81,10.96-21.23l.69-.68c0-3.11-1.12-4.67-3.33-4.67ZM267.02,173.39c-11.98,29.19-22.94,58.54-32.93,87.99-9.96,29.44-19.39,59.01-28.26,88.64v2.02h-1.99c-10.21,2.21-20.6,4.64-31.28,7.28-10.65,2.65-21.29,5.32-31.93,7.97-2.24.87-6.41,2.24-12.64,3.98-3.55.9-6.01,1.59-7.31,1.99-.9.47-1.77.68-2.65.68-.44,0-.9.25-1.34.68h-6.01l2.68-3.33c27.48-32.34,53.75-64.86,78.81-97.61,25.06-32.8,48.9-66.67,71.52-101.65l10.65-16.59-7.31,17.93Z"/><path class="cls-1" d="M477.82,88.33c-.87-5.29-3.08-8.84-6.63-10.61-1.81-.9-3.36-1.34-4.67-1.34-4.42,0-9.09,1.68-13.97,5.01-4.89,3.33-9.62,7.41-14.29,12.26-4.67,4.89-8.99,9.96-12.98,15.28-3.98,5.32-7.31,9.99-9.99,13.94-9.74,13.73-19.17,28.91-28.26,45.5-9.06,16.59-17.49,33.4-25.24,50.45-7.75,17.06-14.88,34.14-21.29,51.14-6.41,17.06-11.64,33.37-15.62,48.83-2.8,11.2-5.07,22.35-6.91,33.49-.5,3.02-.96,6.04-1.4,9.06-.03.25-.06.53-.09.78-1.96,13.85-2.46,27.14-1.59,39.71.44,4.39,1.21,9.87,2.3,16.25,1.12,6.44,2.8,12.42,5.01,17.96,2.24,5.54,4.98,10.33,8.31,14.29,3.36,3.98,7.69,5.98,12.98,5.98,2.65,0,4.67-.25,6.01-.68.84-.4,1.74-1.53,2.65-3.33.9-3.05,0-4.64-2.65-4.64h-.68l-1.34.68h-3.98c-5.29-.44-9.56-3.95-12.64-10.61-3.08-6.63-5.29-14.16-6.63-22.57-1.34-8.4-2.02-16.84-2.02-25.24s.28-14.63.68-18.61l-.03-.03v-.68l1.34-1.34c19.48-15.5,38-33.21,55.53-53.13,17.52-19.92,33.15-41.36,46.9-64.4,13.73-23.03,25.15-46.94,34.24-71.74,9.12-24.84,14.53-49.83,16.31-75.07.44-1.74.65-4.64.65-8.62.9-2.65.9-5.32,0-7.97ZM466.9,125.96c-1.96,10.4-4.33,20.26-6.97,29.54-10.21,37.19-26.8,73.42-49.89,108.59-23.03,35.2-50.79,66.08-83.16,92.66h.06v.12l-2.05,1.71-1.93,1.62.37-2.4.25-1.59c.87-4.86,1.77-9.65,2.68-14.29.9-4.64,1.99-9.43,3.33-14.29,4.42-16.84,10.05-34.67,16.96-53.47,6.88-18.83,14.63-37.54,23.28-56.15,8.65-18.58,18.08-36.85,28.26-54.81,10.21-17.93,21.29-34.61,33.27-50.14,1.34-2.21,3.36-4.86,6.01-7.97.84-1.34,2.09-2.74,3.64-4.33,1.52-1.53,2.99-3.17,4.33-4.98,3.08-3.11,6.16-5.88,9.27-8.31,3.08-2.43,6.44-3.67,9.99-3.67,2.21,0,3.67,1.43,4.33,4.3.62,2.86.97,5.2.97,6.97,0,10.18-.97,20.45-2.99,30.88Z"/><path class="cls-1" d="M473.28,358.71c-.56,0-1.21.06-1.93.16-2.18.34-5.1,1.15-8.71,2.49-4.89,1.77-10.43,3.98-16.62,6.63-5.76,2.65-11.3,5.35-16.62,8-5.32,2.61-9.55,4.64-12.64,5.94l-1.34,1.34-.62-1.34c-1.77-3.52-3.64-7.19-5.66-10.96-1.99-3.73-3.89-7.63-5.63-11.61-2.24-3.98-3.77-8.19-4.67-12.61-.9-4.39-.68-8.84.62-13.26,1.77-7.1,6.01-12.42,12.64-15.97,6.63-3.55,13.32-5.98,19.95-7.28,2.68-.9,3.98-2.02,3.98-3.33.9-3.08-.9-4.64-5.29-4.64-3.14,0-6.69.87-10.68,2.65-4.01,1.74-8,4.2-11.98,7.28-4.02,3.11-7.59,6.66-10.68,10.61-3.08,4.02-5.29,8.19-6.63,12.64-2.24,7.97-1.12,16.59,3.33,25.9,1.77,4.86,3.77,9.28,6.01,13.26,2.18,3.98,4.42,7.75,6.63,11.3l.69,1.99-2.65,1.34c-2.65.87-6.01,1.96-9.99,3.33-3.98,1.34-7.75,3.11-11.3,5.32-8,4.42-12.89,9.09-14.63,13.94-1.34,5.29.56,9.71,5.63,13.26,5.1,3.58,10.55,5.32,16.31,5.32,5.32,0,11.52-1.65,18.64-4.98,7.07-3.33,11.3-8.06,12.64-14.29.9-2.65,1.03-5.51.34-8.62-.68-3.05-1.68-5.98-3.02-8.62l-1.31-1.99,2.65-1.31c8.87-4.01,17.4-7.91,25.62-11.67,8.19-3.73,14.72-6.72,19.61-8.93,1.93-.9,3.58-1.68,4.95-2.33,2.09-1.03,3.55-1.81,4.33-2.33,1.37-.87,2.02-1.56,2.02-1.99.9-3.08-.44-4.64-3.98-4.64ZM407.39,420.46c-3.08,1.74-6.91,2.65-11.3,2.65-3.98,0-8.25-.87-12.64-2.65v.03c-1.8-.84-3.36-1.74-4.67-2.65-1.34-2.21-1.77-3.73-1.34-4.64.44-2.21,1.77-3.77,3.98-4.67.9-.87,1.9-1.43,2.99-1.65s2.33-.78,3.64-1.65c2.24-.9,4.33-1.59,6.35-2.02,2.02-.44,3.42-1.09,4.33-1.99l11.98-5.35c.9,3.55,1.9,7.66,2.99,12.29,1.09,4.64-1.03,8.75-6.32,12.29Z"/><path class="cls-1" d="M640.63,139.37c-.65-4.86-2.46-8.81-5.32-11.92-2.86-3.08-7.19-4.67-12.98-4.67-9.34,0-17.65,3.67-24.96,10.99-7.31,7.28-14.1,14.91-20.29,22.88-9.77,12.42-19.86,26.14-30.28,41.21-10.43,15.06-20.2,30.53-29.29,46.5-9.12,15.9-17.31,31.78-24.62,47.46-7.31,15.75-12.98,30.88-16.96,45.5-.87,3.95-1.87,8.06-2.99,12.29-.87,3.27-1.4,6.35-1.59,9.24-.06.81-.09,1.62-.09,2.4,0,1.53-.12,3.64-.34,6.41-.09,1.28-.22,2.68-.34,4.2-.41,4.86-.41,9.93,0,15.28.44,2.21.78,4.42,1,6.63.22,2.24.56,4.23,1,5.98,1.31,3.58,2.86,5.32,4.67,5.32l.62-.65c.87,0,1.77-.5,2.68-1.34.87-.84,1.87-1.62,2.99-2.3,1.06-.68,2.3-1.65,3.64-2.99,1.31-1.31,2.77-2.65,4.33-3.95,1.53-1.34,2.99-2.65,4.33-3.98l19.95-17.27c2.21-2.21,4.89-4.73,8-7.63,3.08-2.86,6.01-4.98,8.65-6.32,2.65-1.74,4.42-2.65,5.32-2.65,1.31,0,1.99.44,1.99,1.34.44.4.65.87.65,1.31v3.33l-1.34,5.32c-.84,3.55-1.62,6.97-2.3,10.3-.65,3.3-1,6.72-1,10.27-.9,6.19.56,11.3,4.33,15.25,3.77,3.98,8.78,5.98,15,5.98,8.87,0,17.93-3.67,27.26-10.96,7.44-5.79,13.6-11.55,18.46-17.24,1.28-1.43,2.43-2.89,3.52-4.33,2.18-2.65,4.42-5.35,6.63-8,.19-.19.34-.4.5-.59,2.05-2.4,3.83-4.64,5.51-6.69.9-.9,1.31-1.59,1.31-1.99.25-.78.34-1.43.25-1.96-.19-1.34-1.4-2.02-3.58-2.02-1.34,0-2.65.9-3.98,2.65v.68c-.9.9-1.46,1.59-1.68,2.02-.19.47-.75,1.09-1.65,1.99-.53.72-1.06,1.4-1.59,2.05-2.12,2.71-4.26,5.14-6.38,7.25-3.11,3.52-6.01,6.79-8.65,9.62-2.65,2.86-4.42,4.76-5.32,5.63-3.55,3.55-7.75,6.97-12.61,10.3-4.89,3.3-9.99,4.98-15.31,4.98-8.43,0-12.95-3.08-13.63-9.31-.68-6.22-.34-12.61.97-19.27.9-4.45,1.59-7.5,2.02-9.31,0-1.74.12-3.33.34-4.64.22-1.34.09-2.43-.34-3.33-.9-4.86-3.61-7.31-8-7.31-2.68,0-6.44,1.81-11.33,5.35-4.86,3.52-10.4,7.75-16.59,12.61-5.79,4.92-11.11,9.65-16,14.29-4.86,4.67-8.62,8.06-11.3,10.3v-.12l-2.65,1.99-.68-2.65c-1.34-9.77-1.34-19.7,0-29.91v-.68l.68-.65c7.53-8,15.41-15.62,23.62-22.91,8.25-7.35,16.53-14.72,24.96-22.29,11.11-9.71,22.19-19.92,33.27-30.53,11.05-10.61,21.38-21.91,30.94-33.86,9.49-11.92,18.05-24.46,25.58-37.54,7.56-13.04,13.32-26.86,17.31-41.49,1.34-5.29,2.46-10.71,3.36-16.25.87-5.54,1.03-10.74.34-15.62ZM631.29,153.41c-.22,1.74-.56,3.77-1,5.98-.9,2.21-1.46,4.23-1.68,5.98-.22,1.77-.56,3.33-.97,4.64-5.35,19.08-13.23,36.35-23.65,51.82-10.43,15.53-22.1,30.13-34.92,43.85-13.32,14.16-27.3,27.55-41.92,40.18-14.6,12.61-28.82,25.8-42.58,39.53v-.03l-4.67,4.64,2.68-11.95c2.21-7.5,4.67-14.85,7.31-21.91,2.65-7.07,5.51-14.16,8.65-21.23,3.11-7.56,9-19.08,17.65-34.55,8.65-15.5,18.27-31.65,28.95-48.49,10.64-16.81,21.38-32.34,32.28-46.5,10.83-14.16,19.83-23.47,26.92-27.89,2.24-1.74,4.76-3.21,7.69-4.33,2.86-1.09,5.63-1.65,8.28-1.65,4.86,0,7.97,1.65,9.31,4.98,1.34,3.33,2.02,7,2.02,10.96,0,2.24-.16,4.23-.34,5.98Z"/><path class="cls-1" d="M796.59,307.82c-2.21-2.43-5.07-3.67-8.65-3.67-5.76,0-11.98,2.43-18.61,7.28-6.69,4.86-13.1,10.61-19.3,17.27-6.22,6.63-11.73,13.73-16.62,21.26-4.89,7.53-8.65,13.94-11.3,19.27l-8.65,17.96,9.96-36.51c5.76-19.45,11.73-37.85,17.96-55.12l3.98-8.59c0-1.34.41-2.86,1.31-4.67.87-2.21-.25-3.33-3.33-3.33-1.34,0-2.24.28-2.65.68-9.77,8.4-18.3,17.59-25.62,27.58-7.31,9.96-14.1,20.51-20.29,31.56l-19.95,31.84c-3.55,5.29-7.19,10.43-10.96,15.28-3.77,4.86-7.87,9.74-12.26,14.57h-.03v.03l-4.64,4.64,1.34-5.98c.44-.9.56-1.87.34-2.99-.25-1.12-.34-2.09-.34-2.99,0-1.31-.25-2.43-.68-3.33v-3.95c1.31-13.73,3.77-27.89,7.31-42.52.9-2.24,0-3.33-2.65-3.33-.47,0-1.59.4-3.36,1.31l-1.31,1.34-1.34-.68c-1.74-1.74-4.42-2.65-7.97-2.65-4.39,0-8.65,1.25-12.64,3.67-3.98,2.43-7.59,5.42-10.96,8.93-3.3,3.55-6.07,7.53-8.31,11.95-.12.25-.25.53-.37.78-2.05,4.17-3.67,8.12-4.92,11.86-.28,1.62-.37,3.05-.31,4.33.31,4.67,3.08,6.97,8.31,6.97,3.55,0,6.54-.87,9-2.65,2.43-1.74,4.76-3.77,6.97-5.98,1.34-1.31,2.52-2.65,3.64-3.95,1.12-1.34,2.09-2.65,2.99-3.98,2.71-3.55,5.35-6.19,8.03-7.97l3.33-1.99v3.3c-.47,2.65-1.12,6.63-2.02,11.95-.9,5.29-1.59,10.83-1.99,16.59,0,12.42,2.43,18.61,7.31,18.61,2.21,0,4.54-.87,6.97-2.65,2.46-1.81,5.01-4.02,7.66-6.66.9-1.34,2.02-2.77,3.36-4.33,1.31-1.53,2.43-2.96,3.33-4.3.87-1.74,1.74-3.33,2.65-4.64.87-1.34,1.77-2.43,2.68-3.33,4.86-6.66,9.34-13.38,13.29-20.26,3.98-6.88,8.19-13.6,12.64-20.26,3.98-7.07,8.31-14.07,12.98-20.95,4.67-6.82,9.68-13.35,15-19.58l6.63-7.97-3.33,9.31c-4.42,12.36-8.65,24.68-12.64,36.85-3.98,12.14-7.75,24.43-11.3,36.85-.5,1.74-1.12,5.07-2.02,9.93-.9,4.89-1.59,9.77-2.02,14.63-.47,2.65-.68,5.07-.68,7.28v5.98c.47,3.11,1.56,4.64,3.36,4.64,2.21,0,4.17-1.31,5.98-3.95.87-2.21,1.62-4.64,2.3-7.28.65-2.65,1.43-5.35,2.33-8,5.29-13.73,11.64-27.45,18.95-41.18,7.31-13.69,16.75-25.43,28.26-35.2l1.34-1.31,1.99-2.02c.44,0,.9-.22,1.34-.68.87-.84,1.77-1.62,2.65-2.3.87-.68,1.77-1.21,2.68-1.65,4.89-3.11,9.06-4.64,12.64-4.64,2.18,0,3.55.4,3.98,1.31.47,0,.68.44.68,1.34.4,0,.62.4.62,1.31.44.9.78,1.46,1,1.65.22.28.96.34,2.3.34,2.24,0,3.77-1.09,4.67-3.3.87-3.55.22-6.54-2.02-8.96ZM639.63,350.77h-.03l-.03-.03-18.58,22.5.65-1.34c-2.65,2.71-4.67,4.45-6.01,5.35-1.74,1.74-3.55,2.65-5.29,2.65-1.34,0-2.02-.87-2.02-2.65v-2.65c.78-1.96,1.84-4.14,3.11-6.63.16-.34.34-.68.53-1.03,1.56-2.83,3.42-5.7,5.66-8.59.28-.34.53-.68.87-1.03,1.93-2.43,4.11-4.51,6.44-6.29,2.65-1.99,5.51-2.99,8.65-2.99,1.74,0,3.33.68,4.67,2.02l1.31.65.06-.06v.09Z"/><path class="cls-1" d="M863.82,374.61c3.58-2.24,7.75-5.35,12.64-9.31,4.89-4.01,9.52-8.19,13.97-12.64,4.45-4.39,8.43-8.81,11.98-13.26,3.52-4.39,5.73-8.4,6.63-11.95,2.24-7.07-.22-10.61-7.31-10.61-5.32,0-10.4,1.9-15.28,5.63-4.89,3.8-9.34,8.53-13.32,14.29-3.98,5.76-7.47,11.64-10.33,17.62-2.89,5.98-5.01,11.39-6.32,16.25l-1.34,1.34c-3.11,1.77-6.97,3.86-11.64,6.32-4.67,2.43-9.43,4.73-14.32,6.94-4.89,2.21-9.62,4.01-14.29,5.32-4.64,1.34-8.75,2.02-12.29,2.02-4.45,0-7.59-1.34-9.34-3.98-1.74-2.68-2.65-6.01-2.65-9.99v-.03h.09v-1.31l1.31-.68c4.42-2.24,9.68-5.35,15.62-9.31,5.98-3.95,11.95-8.53,17.96-13.6,5.98-5.07,11.17-10.21,15.62-15.28,4.42-5.07,7.31-9.84,8.65-14.29,1.31-4.01.62-7.19-2.02-9.62-2.65-2.46-6.26-3.67-10.64-3.67-6.66,0-12.92,2.09-18.64,6.32-5.79,4.2-10.96,9.4-15.62,15.59-4.67,6.19-8.65,12.85-11.98,19.92-3.36,7.07-5.91,13.73-7.66,19.92-2.24,7.53-1.93,14.29.96,20.26,2.93,5.98,8.31,8.96,16.31,8.96s16.75-2.24,26.3-6.66c9.55-4.39,17.86-8.4,24.96-11.95l2.65-1.31v2.65c-.87,11.08,2.46,18.36,9.99,21.91,7.53,3.58,16.4,5.32,26.58,5.32h1.34l2.02.68c1.31-.47,2.65-.68,3.98-.68,2.18-.84,3.55-2.18,3.95-3.95.9-2.65,0-3.98-2.65-3.98h-15.28c-2.21-.4-4.42-.75-6.63-.96-2.24-.22-4.23-.78-6.01-1.68-7.97-3.52-11.08-11.7-9.27-24.56l1.31-1.99ZM867.18,355.38l8.65-11.3c.47-1.34,1.53-2.99,3.33-5.01,1.74-1.99,3.77-3.95,5.98-5.98,2.21-1.99,4.42-3.73,6.66-5.32,2.21-1.53,3.98-2.3,5.29-2.3s2.12.44,2.33,1.34c.19.87.34,1.56.34,1.99-.9,2.21-2.68,4.86-5.32,7.97-2.71,3.11-5.35,6.22-8,9.31-3.14,3.11-6.1,6.1-8.99,8.96-2.93,2.86-5.01,4.73-6.35,5.63v.03h.09l-6.01,5.98,2.68-7.31,3.98-7.97-4.67,3.98ZM791.99,365.4c1.31-3.55,3.33-8,5.98-13.32,2.68-5.29,5.76-10.4,9.31-15.25,3.52-4.89,7.63-8.96,12.29-12.29,4.67-3.33,9.68-4.98,14.97-4.98,1.34,0,2.86.28,4.67.96,1.77.68,2.24,2.37,1.34,4.98-.9,2.65-3.33,6.07-7.31,10.3-4.05,4.2-8.43,8.4-13.32,12.61-4.89,4.23-9.77,8.12-14.66,11.64-4.89,3.55-8.43,5.98-10.64,7.31v.03l-3.95,2.65,1.34-4.64Z"/><path class="cls-1" d="M1006.81,352.73c-2.24-.9-4.54-1.34-6.97-1.34h-64.89l.65-1.99c6.22-19.48,12.2-38.87,17.99-58.14,5.79-19.23,11.52-38.84,17.31-58.76.9-2.65,0-3.98-2.68-3.98s-4.39,1.56-5.29,4.67l-35.92,118.21h-12.64c-3.08.44-5.32,2.02-6.66,4.67,0,1.31.28,2.21.68,2.65l6.01,7.97c.87,1.31,1.62,2.65,2.3,3.95.65,1.31,1.4,2.86,2.3,4.61h-.06v1.34c-7.97,27.89-15.94,55.49-23.93,82.7-8,27.2-16.18,54.53-24.62,82.01-.87,3.08.25,4.64,3.33,4.64,7.59-4.86,14.01-10.52,19.33-16.93,5.35-6.44,9.87-13.29,13.63-20.6,3.73-7.28,6.88-14.78,9.31-22.57,2.43-7.75,4.54-15.38,6.35-22.88,4.39-15.5,7.75-30.88,9.96-46.16,2.24-15.28.9-29.57-3.98-42.83l3.33-13.29h60.57c3.98,0,6.75.4,8.31,1.31,1.53.9,2.55,1.74,2.99,2.65v1.99h.65c0,.5.4.68,1.31.68,2.68,0,4.42-1.31,5.32-3.95.5-1.37.75-2.65.75-3.83,0-2.93-1.56-5.2-4.73-6.79ZM923.36,423.48c-1.56,9.52-3.42,18.67-5.66,27.54-3.11,11.52-7.1,24.59-11.98,39.22-4.89,14.57-11.52,26.3-19.95,35.17l-5.32,5.98,43.95-146.13.62,11.3c.44,8.47-.12,17.4-1.65,26.92Z"/></g></svg>